{
	"accessors":[{
		"type":"SCALAR",
		"bufferView":0,
		"componentType":5123,
		"count":78195,
		"byteOffset":0,
		"min":[0],
		"max":[13392]
	},
	{
		"type":"VEC3",
		"bufferView":1,
		"componentType":5126,
		"count":13393,
		"byteOffset":0,
		"min":[-1.3922826051712037,
		-3.520498752593994,
		-1.3927030563354493],
		"max":[1.3922826051712037,
		3.519036054611206,
		1.3927030563354493]
	},
	{
		"type":"SCALAR",
		"bufferView":2,
		"componentType":5123,
		"count":15816,
		"byteOffset":0,
		"min":[0],
		"max":[3145]
	},
	{
		"type":"VEC3",
		"bufferView":3,
		"componentType":5126,
		"count":3146,
		"byteOffset":0,
		"min":[-1.3877999782562256,
		-3.491814374923706,
		-1.3877999782562256],
		"max":[1.3877999782562256,
		3.4695000648498537,
		1.3877999782562256]
	},
	{
		"type":"SCALAR",
		"bufferView":4,
		"componentType":5123,
		"count":117234,
		"byteOffset":0,
		"min":[0],
		"max":[19877]
	},
	{
		"type":"VEC3",
		"bufferView":5,
		"componentType":5126,
		"count":19878,
		"byteOffset":0,
		"min":[-15.342153549194336,
		0.0,
		-11.720367431640625],
		"max":[9.80632495880127,
		0.0,
		14.888032913208008]
	},
	{
		"type":"SCALAR",
		"bufferView":6,
		"componentType":5123,
		"count":78195,
		"byteOffset":0,
		"min":[0],
		"max":[13392]
	},
	{
		"type":"VEC3",
		"bufferView":7,
		"componentType":5126,
		"count":13393,
		"byteOffset":0,
		"min":[-1.3922826051712037,
		-3.520498752593994,
		-1.3927030563354493],
		"max":[1.3922826051712037,
		3.519036054611206,
		1.3927030563354493]
	},
	{
		"type":"SCALAR",
		"bufferView":8,
		"componentType":5123,
		"count":15816,
		"byteOffset":0,
		"min":[0],
		"max":[3145]
	},
	{
		"type":"VEC3",
		"bufferView":9,
		"componentType":5126,
		"count":3146,
		"byteOffset":0,
		"min":[-1.3877999782562256,
		-3.491814374923706,
		-1.3877999782562256],
		"max":[1.3877999782562256,
		3.4695000648498537,
		1.3877999782562256]
	},
	{
		"type":"SCALAR",
		"bufferView":10,
		"componentType":5123,
		"count":1719,
		"byteOffset":0,
		"min":[0],
		"max":[287]
	},
	{
		"type":"VEC3",
		"bufferView":11,
		"componentType":5126,
		"count":288,
		"byteOffset":0,
		"min":[-0.3975909650325775,
		-0.02863324247300625,
		-0.19879548251628877],
		"max":[0.3975909650325775,
		0.19879548251628877,
		0.19879548251628877]
	},
	{
		"type":"SCALAR",
		"bufferView":12,
		"componentType":5123,
		"count":1719,
		"byteOffset":0,
		"min":[0],
		"max":[287]
	},
	{
		"type":"VEC3",
		"bufferView":13,
		"componentType":5126,
		"count":288,
		"byteOffset":0,
		"min":[-0.3975909650325775,
		-0.02863324247300625,
		-0.19879548251628877],
		"max":[0.3975909650325775,
		0.19879548251628877,
		0.19879548251628877]
	},
	{
		"type":"SCALAR",
		"bufferView":14,
		"componentType":5123,
		"count":1719,
		"byteOffset":0,
		"min":[0],
		"max":[287]
	},
	{
		"type":"VEC3",
		"bufferView":15,
		"componentType":5126,
		"count":288,
		"byteOffset":0,
		"min":[-0.3975909650325775,
		-0.02863324247300625,
		-0.19879548251628877],
		"max":[0.3975909650325775,
		0.19879548251628877,
		0.19879548251628877]
	},
	{
		"type":"SCALAR",
		"bufferView":16,
		"componentType":5123,
		"count":1719,
		"byteOffset":0,
		"min":[0],
		"max":[287]
	},
	{
		"type":"VEC3",
		"bufferView":17,
		"componentType":5126,
		"count":288,
		"byteOffset":0,
		"min":[-0.3975909650325775,
		-0.02863324247300625,
		-0.19879548251628877],
		"max":[0.3975909650325775,
		0.19879548251628877,
		0.19879548251628877]
	},
	{
		"type":"SCALAR",
		"bufferView":18,
		"componentType":5123,
		"count":41832,
		"byteOffset":0,
		"min":[0],
		"max":[6973]
	},
	{
		"type":"VEC3",
		"bufferView":19,
		"componentType":5126,
		"count":6974,
		"byteOffset":0,
		"min":[-2.469395399093628,
		-2.0476162433624269,
		-1.6968531608581544],
		"max":[4.350589275360107,
		4.265978813171387,
		4.448625087738037]
	},
	{
		"type":"SCALAR",
		"bufferView":20,
		"componentType":5123,
		"count":41832,
		"byteOffset":0,
		"min":[0],
		"max":[6973]
	},
	{
		"type":"VEC3",
		"bufferView":21,
		"componentType":5126,
		"count":6974,
		"byteOffset":0,
		"min":[-0.3686077892780304,
		-0.3056485950946808,
		-0.253290057182312],
		"max":[0.6494144797325134,
		0.6367846131324768,
		0.6640482544898987]
	},
	{
		"type":"SCALAR",
		"bufferView":22,
		"componentType":5123,
		"count":41832,
		"byteOffset":0,
		"min":[0],
		"max":[6973]
	},
	{
		"type":"VEC3",
		"bufferView":23,
		"componentType":5126,
		"count":6974,
		"byteOffset":0,
		"min":[-2.3461289405822756,
		-1.9454039335250855,
		-1.6121501922607422],
		"max":[4.133418083190918,
		4.053030967712402,
		4.226559638977051]
	}],
	"asset":{
		"version":"2.0",
		"generator":"Sketchfab-12.67.0",
		"copyright":""
	},
	"scenes":[{
		"nodes":[0,
		1,
		2,
		3,
		4,
		5,
		6,
		7,
		8,
		9,
		10,
		11]
	}],
	"nodes":[{
		"name":"Object_4",
		"mesh":0,
		"translation":[-9.197601318359375,
		1.4971809387207032,
		5.757899761199951],
		"rotation":[-0.66395503282547,
		-0.24323588609695435,
		0.24323588609695435,
		-0.66395503282547],
		"scale":[1.073388695716858,
		1.073388695716858,
		1.073388695716858]
	},
	{
		"name":"контейнер 2",
		"mesh":1,
		"translation":[-9.197601318359375,
		1.4971809387207032,
		5.757899761199951],
		"rotation":[-0.66395503282547,
		-0.24323588609695435,
		0.24323588609695435,
		-0.66395503282547],
		"scale":[1.073388695716858,
		1.073388695716858,
		1.073388695716858]
	},
	{
		"name":"пол",
		"mesh":2
	},
	{
		"name":"Object_4",
		"mesh":3,
		"translation":[0.5950932502746582,
		1.5591158866882325,
		-3.3386929035186769],
		"rotation":[0.6575500965118408,
		-0.2600535452365875,
		0.2600535452365875,
		0.6575500965118408],
		"scale":[1.073388695716858,
		1.073388695716858,
		1.073388695716858]
	},
	{
		"name":"Object_3",
		"mesh":4,
		"translation":[0.5950932502746582,
		1.5591158866882325,
		-3.3386929035186769],
		"rotation":[0.6575500965118408,
		-0.2600535452365875,
		0.2600535452365875,
		0.6575500965118408],
		"scale":[1.073388695716858,
		1.073388695716858,
		1.073388695716858]
	},
	{
		"name":"кирпич",
		"mesh":5,
		"translation":[3.7195467948913576,
		0.027877086773514749,
		1.4249941110610963],
		"rotation":[0.0,
		0.1546052098274231,
		0.0,
		-0.9879763126373291],
		"scale":[1.0,
		1.0,
		1.0]
	},
	{
		"name":"кирпич.1",
		"mesh":6,
		"translation":[3.547133684158325,
		0.17183250188827516,
		1.8764560222625733],
		"rotation":[-0.1291721761226654,
		-0.4632103443145752,
		-0.11026699841022492,
		-0.8698229193687439],
		"scale":[1.0,
		1.0,
		1.0]
	},
	{
		"name":"кирпич.2",
		"mesh":7,
		"translation":[4.813714504241943,
		0.06368032842874527,
		0.6878616213798523],
		"rotation":[-0.05541098117828369,
		-0.3936086893081665,
		-0.0008176294504664838,
		0.9176062345504761],
		"scale":[1.0,
		1.0,
		1.0]
	},
	{
		"name":"кирпич.3",
		"mesh":8,
		"translation":[2.358513832092285,
		0.0696927160024643,
		0.16705410182476045],
		"rotation":[-0.006143371574580669,
		0.9557972550392151,
		-0.04710877686738968,
		0.2901630401611328],
		"scale":[1.0,
		1.0,
		1.0]
	},
	{
		"name":"Remesh",
		"mesh":9,
		"translation":[-16.954648971557618,
		6.787413597106934,
		0.0010806068312376738],
		"rotation":[0.0,
		0.0,
		0.0,
		-1.0],
		"scale":[1.0,
		1.0,
		1.0]
	},
	{
		"name":"Remesh.1",
		"mesh":10,
		"translation":[8.188620567321778,
		0.381046861410141,
		0.3749591112136841],
		"rotation":[-0.8097032308578491,
		-0.46591877937316897,
		0.3084549903869629,
		0.1793207824230194],
		"scale":[1.0,
		1.0,
		1.0]
	},
	{
		"name":"Remesh.3",
		"mesh":11,
		"translation":[-9.437457084655762,
		7.2946367263793949,
		7.245243549346924],
		"rotation":[0.0024657435715198519,
		0.008021769113838673,
		-0.2938041388988495,
		0.9558287858963013],
		"scale":[1.0,
		1.0,
		1.0]
	}],
	"meshes":[{
		"name":"Object_4",
		"primitives":[{
			"attributes":{
				"POSITION":1
			},
			"indices":0,
			"material":0
		}]
	},
	{
		"name":"контейнер 2",
		"primitives":[{
			"attributes":{
				"POSITION":3
			},
			"indices":2,
			"material":1
		}]
	},
	{
		"name":"пол",
		"primitives":[{
			"attributes":{
				"POSITION":5
			},
			"indices":4,
			"material":2
		}]
	},
	{
		"name":"Object_4",
		"primitives":[{
			"attributes":{
				"POSITION":7
			},
			"indices":6,
			"material":0
		}]
	},
	{
		"name":"Object_3",
		"primitives":[{
			"attributes":{
				"POSITION":9
			},
			"indices":8,
			"material":3
		}]
	},
	{
		"name":"кирпич",
		"primitives":[{
			"attributes":{
				"POSITION":11
			},
			"indices":10,
			"material":4
		}]
	},
	{
		"name":"кирпич.1",
		"primitives":[{
			"attributes":{
				"POSITION":13
			},
			"indices":12,
			"material":4
		}]
	},
	{
		"name":"кирпич.2",
		"primitives":[{
			"attributes":{
				"POSITION":15
			},
			"indices":14,
			"material":4
		}]
	},
	{
		"name":"кирпич.3",
		"primitives":[{
			"attributes":{
				"POSITION":17
			},
			"indices":16,
			"material":4
		}]
	},
	{
		"name":"Remesh",
		"primitives":[{
			"attributes":{
				"POSITION":19
			},
			"indices":18,
			"material":5
		}]
	},
	{
		"name":"Remesh.1",
		"primitives":[{
			"attributes":{
				"POSITION":21
			},
			"indices":20,
			"material":5
		}]
	},
	{
		"name":"Remesh.3",
		"primitives":[{
			"attributes":{
				"POSITION":23
			},
			"indices":22,
			"material":5
		}]
	}],
	"bufferViews":[{
		"buffer":0,
		"byteOffset":0,
		"byteLength":156390,
		"target":34963
	},
	{
		"buffer":0,
		"byteOffset":156392,
		"byteLength":160716,
		"target":34962
	},
	{
		"buffer":1,
		"byteOffset":0,
		"byteLength":31632,
		"target":34963
	},
	{
		"buffer":1,
		"byteOffset":31632,
		"byteLength":37752,
		"target":34962
	},
	{
		"buffer":2,
		"byteOffset":0,
		"byteLength":234468,
		"target":34963
	},
	{
		"buffer":2,
		"byteOffset":234468,
		"byteLength":238536,
		"target":34962
	},
	{
		"buffer":3,
		"byteOffset":0,
		"byteLength":156390,
		"target":34963
	},
	{
		"buffer":3,
		"byteOffset":156392,
		"byteLength":160716,
		"target":34962
	},
	{
		"buffer":4,
		"byteOffset":0,
		"byteLength":31632,
		"target":34963
	},
	{
		"buffer":4,
		"byteOffset":31632,
		"byteLength":37752,
		"target":34962
	},
	{
		"buffer":5,
		"byteOffset":0,
		"byteLength":3438,
		"target":34963
	},
	{
		"buffer":5,
		"byteOffset":3440,
		"byteLength":3456,
		"target":34962
	},
	{
		"buffer":6,
		"byteOffset":0,
		"byteLength":3438,
		"target":34963
	},
	{
		"buffer":6,
		"byteOffset":3440,
		"byteLength":3456,
		"target":34962
	},
	{
		"buffer":7,
		"byteOffset":0,
		"byteLength":3438,
		"target":34963
	},
	{
		"buffer":7,
		"byteOffset":3440,
		"byteLength":3456,
		"target":34962
	},
	{
		"buffer":8,
		"byteOffset":0,
		"byteLength":3438,
		"target":34963
	},
	{
		"buffer":8,
		"byteOffset":3440,
		"byteLength":3456,
		"target":34962
	},
	{
		"buffer":9,
		"byteOffset":0,
		"byteLength":83664,
		"target":34963
	},
	{
		"buffer":9,
		"byteOffset":83664,
		"byteLength":83688,
		"target":34962
	},
	{
		"buffer":10,
		"byteOffset":0,
		"byteLength":83664,
		"target":34963
	},
	{
		"buffer":10,
		"byteOffset":83664,
		"byteLength":83688,
		"target":34962
	},
	{
		"buffer":11,
		"byteOffset":0,
		"byteLength":83664,
		"target":34963
	},
	{
		"buffer":11,
		"byteOffset":83664,
		"byteLength":83688,
		"target":34962
	}],
	"buffers":[{
		"uri":"data:application/octet-stream;base64,",
		"byteLength":317108
	},
	{
		"uri":"data:application/octet-stream;base64,",
		"byteLength":69384
	},
	{
		"uri":"data:application/octet-stream;base64,",
		"byteLength":473004
	},
	{
		"uri":"data:application/octet-stream;base64,",
		"byteLength":317108
	},
	{
		"uri":"data:application/octet-stream;base64,",
		"byteLength":69384
	},
	{
		"uri":"data:application/octet-stream;base64,",
		"byteLength":6896
	},
	{
		"uri":"data:application/octet-stream;base64,",
		"byteLength":6896
	},
	{
		"uri":"data:application/octet-stream;base64,",
		"byteLength":6896
	},
	{
		"uri":"data:application/octet-stream;base64,",
		"byteLength":6896
	},
	{
		"uri":"data:application/octet-stream;base64,",
		"byteLength":167352
	},
	{
		"uri":"data:application/octet-stream;base64,",
		"byteLength":167352
	},
	{
		"uri":"data:application/octet-stream;base64,",
		"byteLength":167352
	}],
	"materials":[{
		"pbrMetallicRoughness":{
			"baseColorFactor":[1.0,
			1.0,
			1.0,
			1.0],
			"metallicFactor":1.0,
			"roughnessFactor":1.0
		},
		"emissiveFactor":[0.0,
		0.0,
		0.0],
		"alphaMode":"OPAQUE",
		"doubleSided":false,
		"name":"Metal Galvanized 001 50cm"
	},
	{
		"pbrMetallicRoughness":{
			"baseColorFactor":[1.0,
			1.0,
			1.0,
			1.0],
			"metallicFactor":1.0,
			"roughnessFactor":1.0
		},
		"emissiveFactor":[0.0,
		0.0,
		0.0],
		"alphaMode":"OPAQUE",
		"doubleSided":false,
		"name":""
	},
	{
		"pbrMetallicRoughness":{
			"baseColorFactor":[1.0,
			1.0,
			1.0,
			1.0],
			"metallicFactor":0.0,
			"roughnessFactor":1.0
		},
		"emissiveFactor":[0.0,
		0.0,
		0.0],
		"alphaMode":"OPAQUE",
		"doubleSided":false,
		"name":"Aixterior Ground 011 300 cm Disp 5.0cm"
	},
	{
		"pbrMetallicRoughness":{
			"baseColorFactor":[1.0,
			1.0,
			1.0,
			1.0],
			"metallicFactor":1.0,
			"roughnessFactor":1.0
		},
		"emissiveFactor":[0.0,
		0.0,
		0.0],
		"alphaMode":"OPAQUE",
		"doubleSided":false,
		"name":""
	},
	{
		"pbrMetallicRoughness":{
			"baseColorFactor":[1.0,
			1.0,
			1.0,
			1.0],
			"metallicFactor":0.0,
			"roughnessFactor":0.6
		},
		"emissiveFactor":[0.0,
		0.0,
		0.0],
		"alphaMode":"OPAQUE",
		"doubleSided":false,
		"name":"Basic Concrete"
	},
	{
		"pbrMetallicRoughness":{
			"baseColorFactor":[0.21568627450980394,
			0.5799999999999994,
			0.0,
			1.0],
			"metallicFactor":0.0,
			"roughnessFactor":0.45
		},
		"emissiveFactor":[0.0,
		0.0,
		0.0],
		"alphaMode":"OPAQUE",
		"doubleSided":false,
		"name":"Plastic Soft Green"
	}]
}