{
	"accessors":[{
		"type":"SCALAR",
		"bufferView":0,
		"componentType":5123,
		"count":94011,
		"byteOffset":0,
		"min":[0],
		"max":[15745]
	},
	{
		"type":"VEC3",
		"bufferView":1,
		"componentType":5126,
		"count":15746,
		"byteOffset":0,
		"min":[-56.50191116333008,
		-23.639909744262697,
		-60.7383918762207],
		"max":[56.50191116333008,
		23.639909744262697,
		60.7383918762207]
	},
	{
		"type":"SCALAR",
		"bufferView":2,
		"componentType":5123,
		"count":117234,
		"byteOffset":0,
		"min":[0],
		"max":[19877]
	},
	{
		"type":"VEC3",
		"bufferView":3,
		"componentType":5126,
		"count":19878,
		"byteOffset":0,
		"min":[-242.61441040039063,
		0.0,
		-185.3409881591797],
		"max":[155.0731201171875,
		0.0,
		235.43313598632813]
	},
	{
		"type":"SCALAR",
		"bufferView":4,
		"componentType":5123,
		"count":94011,
		"byteOffset":0,
		"min":[0],
		"max":[15745]
	},
	{
		"type":"VEC3",
		"bufferView":5,
		"componentType":5126,
		"count":15746,
		"byteOffset":0,
		"min":[-57.96751022338867,
		-23.639909744262697,
		-59.60990905761719],
		"max":[57.96751022338867,
		23.639909744262697,
		59.60990905761719]
	},
	{
		"type":"SCALAR",
		"bufferView":6,
		"componentType":5123,
		"count":1719,
		"byteOffset":0,
		"min":[0],
		"max":[287]
	},
	{
		"type":"VEC3",
		"bufferView":7,
		"componentType":5126,
		"count":288,
		"byteOffset":0,
		"min":[-6.287337303161621,
		-0.4527941048145294,
		-3.1436686515808107],
		"max":[6.287337303161621,
		3.1436686515808107,
		3.1436686515808107]
	},
	{
		"type":"SCALAR",
		"bufferView":8,
		"componentType":5123,
		"count":1719,
		"byteOffset":0,
		"min":[0],
		"max":[287]
	},
	{
		"type":"VEC3",
		"bufferView":9,
		"componentType":5126,
		"count":288,
		"byteOffset":0,
		"min":[-6.287337303161621,
		-0.4527941048145294,
		-3.1436686515808107],
		"max":[6.287337303161621,
		3.1436686515808107,
		3.1436686515808107]
	},
	{
		"type":"SCALAR",
		"bufferView":10,
		"componentType":5123,
		"count":1719,
		"byteOffset":0,
		"min":[0],
		"max":[287]
	},
	{
		"type":"VEC3",
		"bufferView":11,
		"componentType":5126,
		"count":288,
		"byteOffset":0,
		"min":[-6.287337303161621,
		-0.4527941048145294,
		-3.1436686515808107],
		"max":[6.287337303161621,
		3.1436686515808107,
		3.1436686515808107]
	},
	{
		"type":"SCALAR",
		"bufferView":12,
		"componentType":5123,
		"count":1719,
		"byteOffset":0,
		"min":[0],
		"max":[287]
	},
	{
		"type":"VEC3",
		"bufferView":13,
		"componentType":5126,
		"count":288,
		"byteOffset":0,
		"min":[-6.287337303161621,
		-0.4527941048145294,
		-3.1436686515808107],
		"max":[6.287337303161621,
		3.1436686515808107,
		3.1436686515808107]
	},
	{
		"type":"SCALAR",
		"bufferView":14,
		"componentType":5123,
		"count":41832,
		"byteOffset":0,
		"min":[0],
		"max":[6973]
	},
	{
		"type":"VEC3",
		"bufferView":15,
		"componentType":5126,
		"count":6974,
		"byteOffset":0,
		"min":[-39.04998779296875,
		-32.38014602661133,
		-26.83332633972168],
		"max":[68.79840087890625,
		67.46040344238281,
		70.34869384765625]
	},
	{
		"type":"SCALAR",
		"bufferView":16,
		"componentType":5123,
		"count":41832,
		"byteOffset":0,
		"min":[0],
		"max":[6973]
	},
	{
		"type":"VEC3",
		"bufferView":17,
		"componentType":5126,
		"count":6974,
		"byteOffset":0,
		"min":[-24.713834762573243,
		-20.492645263671876,
		-16.982192993164064],
		"max":[43.540916442871097,
		42.69413375854492,
		44.52206039428711]
	},
	{
		"type":"SCALAR",
		"bufferView":18,
		"componentType":5123,
		"count":41832,
		"byteOffset":0,
		"min":[0],
		"max":[6973]
	},
	{
		"type":"VEC3",
		"bufferView":19,
		"componentType":5126,
		"count":6974,
		"byteOffset":0,
		"min":[-37.10070037841797,
		-30.763803482055665,
		-25.493867874145509],
		"max":[65.36414337158203,
		64.09294128417969,
		66.83705139160156]
	}],
	"asset":{
		"version":"2.0",
		"generator":"Sketchfab-12.67.0",
		"copyright":""
	},
	"scenes":[{
		"nodes":[0,
		1,
		2,
		3,
		4,
		5,
		6,
		7,
		8,
		9]
	}],
	"nodes":[{
		"name":"2",
		"mesh":0,
		"translation":[-80.51888275146485,
		-30.354053497314454,
		62.11801528930664],
		"rotation":[0.0,
		0.0,
		0.0,
		-1.0],
		"scale":[1.0,
		1.0,
		1.0]
	},
	{
		"name":"пол",
		"mesh":1,
		"translation":[64.92813110351563,
		-54.02984619140625,
		-28.93500328063965],
		"rotation":[0.0,
		0.0,
		0.0,
		-1.0],
		"scale":[1.0,
		1.0,
		1.0]
	},
	{
		"name":"1",
		"mesh":2,
		"translation":[74.33868408203125,
		-29.3746395111084,
		-81.73169708251953],
		"rotation":[0.0,
		0.0,
		0.0,
		-1.0],
		"scale":[1.0,
		1.0,
		1.0]
	},
	{
		"name":"кирпич",
		"mesh":3,
		"translation":[123.74748992919922,
		-53.589012145996097,
		-6.4007415771484379],
		"rotation":[0.0,
		0.1546052098274231,
		0.0,
		-0.9879763126373291],
		"scale":[1.0,
		1.0,
		1.0]
	},
	{
		"name":"кирпич.1",
		"mesh":4,
		"translation":[121.0210189819336,
		-51.31256103515625,
		0.7384890913963318],
		"rotation":[-0.1291721761226654,
		-0.4632103443145752,
		-0.11026699841022492,
		-0.8698229193687439],
		"scale":[1.0,
		1.0,
		1.0]
	},
	{
		"name":"кирпич.2",
		"mesh":5,
		"translation":[141.05020141601563,
		-53.02283477783203,
		-18.057445526123048],
		"rotation":[-0.05541098117828369,
		-0.3936086893081665,
		-0.0008176294504664838,
		0.9176062345504761],
		"scale":[1.0,
		1.0,
		1.0]
	},
	{
		"name":"кирпич.3",
		"mesh":6,
		"translation":[102.22467803955078,
		-52.927757263183597,
		-26.29327964782715],
		"rotation":[-0.006143371574580669,
		0.9557972550392151,
		-0.04710877686738968,
		0.2901630401611328],
		"scale":[1.0,
		1.0,
		1.0]
	},
	{
		"name":"Remesh",
		"mesh":7,
		"translation":[-98.7681884765625,
		-20.130876541137697,
		-92.12450408935547],
		"rotation":[0.0,
		0.0,
		0.0,
		-1.0],
		"scale":[1.0,
		1.0,
		1.0]
	},
	{
		"name":"Remesh.1",
		"mesh":8,
		"translation":[201.41476440429688,
		-18.709291458129884,
		-40.637325286865237],
		"rotation":[-0.8097032308578491,
		-0.46591877937316897,
		0.3084549903869629,
		0.1793207824230194],
		"scale":[1.0,
		1.0,
		1.0]
	},
	{
		"name":"Remesh.3",
		"mesh":9,
		"translation":[61.991615295410159,
		-20.09783172607422,
		82.83869171142578],
		"rotation":[0.0024657435715198519,
		0.008021769113838673,
		-0.2938041388988495,
		0.9558287858963013],
		"scale":[1.0,
		1.0,
		1.0]
	}],
	"meshes":[{
		"name":"2",
		"primitives":[{
			"attributes":{
				"POSITION":1
			},
			"indices":0
		}]
	},
	{
		"name":"пол",
		"primitives":[{
			"attributes":{
				"POSITION":3
			},
			"indices":2
		}]
	},
	{
		"name":"1",
		"primitives":[{
			"attributes":{
				"POSITION":5
			},
			"indices":4
		}]
	},
	{
		"name":"кирпич",
		"primitives":[{
			"attributes":{
				"POSITION":7
			},
			"indices":6
		}]
	},
	{
		"name":"кирпич.1",
		"primitives":[{
			"attributes":{
				"POSITION":9
			},
			"indices":8
		}]
	},
	{
		"name":"кирпич.2",
		"primitives":[{
			"attributes":{
				"POSITION":11
			},
			"indices":10
		}]
	},
	{
		"name":"кирпич.3",
		"primitives":[{
			"attributes":{
				"POSITION":13
			},
			"indices":12
		}]
	},
	{
		"name":"Remesh",
		"primitives":[{
			"attributes":{
				"POSITION":15
			},
			"indices":14
		}]
	},
	{
		"name":"Remesh.1",
		"primitives":[{
			"attributes":{
				"POSITION":17
			},
			"indices":16
		}]
	},
	{
		"name":"Remesh.3",
		"primitives":[{
			"attributes":{
				"POSITION":19
			},
			"indices":18
		}]
	}],
	"bufferViews":[{
		"buffer":0,
		"byteOffset":0,
		"byteLength":188022,
		"target":34963
	},
	{
		"buffer":0,
		"byteOffset":188024,
		"byteLength":188952,
		"target":34962
	},
	{
		"buffer":1,
		"byteOffset":0,
		"byteLength":234468,
		"target":34963
	},
	{
		"buffer":1,
		"byteOffset":234468,
		"byteLength":238536,
		"target":34962
	},
	{
		"buffer":2,
		"byteOffset":0,
		"byteLength":188022,
		"target":34963
	},
	{
		"buffer":2,
		"byteOffset":188024,
		"byteLength":188952,
		"target":34962
	},
	{
		"buffer":3,
		"byteOffset":0,
		"byteLength":3438,
		"target":34963
	},
	{
		"buffer":3,
		"byteOffset":3440,
		"byteLength":3456,
		"target":34962
	},
	{
		"buffer":4,
		"byteOffset":0,
		"byteLength":3438,
		"target":34963
	},
	{
		"buffer":4,
		"byteOffset":3440,
		"byteLength":3456,
		"target":34962
	},
	{
		"buffer":5,
		"byteOffset":0,
		"byteLength":3438,
		"target":34963
	},
	{
		"buffer":5,
		"byteOffset":3440,
		"byteLength":3456,
		"target":34962
	},
	{
		"buffer":6,
		"byteOffset":0,
		"byteLength":3438,
		"target":34963
	},
	{
		"buffer":6,
		"byteOffset":3440,
		"byteLength":3456,
		"target":34962
	},
	{
		"buffer":7,
		"byteOffset":0,
		"byteLength":83664,
		"target":34963
	},
	{
		"buffer":7,
		"byteOffset":83664,
		"byteLength":83688,
		"target":34962
	},
	{
		"buffer":8,
		"byteOffset":0,
		"byteLength":83664,
		"target":34963
	},
	{
		"buffer":8,
		"byteOffset":83664,
		"byteLength":83688,
		"target":34962
	},
	{
		"buffer":9,
		"byteOffset":0,
		"byteLength":83664,
		"target":34963
	},
	{
		"buffer":9,
		"byteOffset":83664,
		"byteLength":83688,
		"target":34962
	}],
	"buffers":[{
		"uri":"data:application/octet-stream;base64,",
		"byteLength":376976
	},
	{
		"uri":"data:application/octet-stream;base64,",
		"byteLength":473004
	},
	{
		"uri":"data:application/octet-stream;base64,",
		"byteLength":376976
	},
	{
		"uri":"data:application/octet-stream;base64,",
		"byteLength":6896
	},
	{
		"uri":"data:application/octet-stream;base64,",
		"byteLength":6896
	},
	{
		"uri":"data:application/octet-stream;base64,",
		"byteLength":6896
	},
	{
		"uri":"data:application/octet-stream;base64,",
		"byteLength":6896
	},
	{
		"uri":"data:application/octet-stream;base64,",
		"byteLength":167352
	},
	{
		"uri":"data:application/octet-stream;base64,",
		"byteLength":167352
	},
	{
		"uri":"data:application/octet-stream;base64,",
		"byteLength":167352
	}]
}